<?xml version="1.0" standalone="no"?>
<!DOCTYPE svg PUBLIC "-//W3C//DTD SVG 20010904//EN"
 "http://www.w3.org/TR/2001/REC-SVG-20010904/DTD/svg10.dtd">
<svg version="1.0" xmlns="http://www.w3.org/2000/svg"
 width="702.000000pt" height="702.000000pt" viewBox="0 0 702.000000 702.000000"
 preserveAspectRatio="xMidYMid meet">
<metadata>
Created by potrace 1.14, written by Peter Selinger 2001-2017
</metadata>
<g transform="translate(0.000000,702.000000) scale(0.100000,-0.100000)"
fill="#000000" stroke="none">
<path d="M3318 6945 c-2 -2 -42 -6 -90 -9 -48 -3 -102 -8 -120 -11 -18 -2 -51
-7 -73 -10 -111 -15 -273 -46 -368 -70 -784 -199 -1480 -676 -1954 -1336 -323
-452 -534 -981 -608 -1524 -12 -85 -15 -113 -22 -190 -9 -103 -9 -465 0 -575
8 -91 36 -301 42 -310 1 -3 6 -26 9 -53 21 -157 134 -521 227 -728 89 -200
248 -485 323 -580 12 -14 28 -37 36 -49 8 -13 59 -79 114 -147 137 -173 351
-387 535 -536 254 -205 643 -424 956 -537 76 -27 340 -108 374 -114 14 -3 58
-12 96 -20 39 -8 86 -18 105 -21 19 -3 42 -8 50 -10 8 -2 40 -7 70 -10 30 -3
66 -8 80 -10 95 -14 203 -19 395 -20 186 0 268 4 430 20 18 2 91 12 140 20 58
9 190 36 265 55 47 11 94 23 105 25 46 10 248 81 360 125 575 229 1100 634
1477 1140 131 176 274 416 357 600 19 41 42 93 52 115 48 105 152 421 173 525
8 42 15 71 20 88 3 9 7 34 11 56 3 21 7 41 9 45 2 3 7 29 10 56 3 28 8 62 11
78 28 142 40 565 22 775 -61 733 -354 1420 -848 1988 -74 85 -294 297 -391
376 -260 213 -582 408 -853 517 -44 18 -89 36 -100 41 -205 90 -597 181 -925
216 -60 6 -497 14 -502 9z"/>
</g>
</svg>
